<svg xmlns="http://www.w3.org/2000/svg" viewBox="0 0 48 48" fill="none" stroke="currentColor" stroke-width="2.4" stroke-linecap="round" stroke-linejoin="round">
  <title>Settings</title>
  <rect x="3" y="4" width="42" height="40" rx="10" fill="currentColor" opacity="0.06"/>
  <circle cx="24" cy="24" r="6"/>
  <path d="M34 24a10 10 0 0 0-.14-1.7l3.4-2-3-5.2-3.4 2a10 10 0 0 0-2.96-1.7l-.5-3.9h-6l-.5 3.9a10 10 0 0 0-2.96 1.7l-3.4-2-3 5.2 3.4 2A10 10 0 0 0 14 24c0 .58.05 1.15.14 1.7l-3.4 2 3 5.2 3.4-2c.9.72 1.9 1.3 2.96 1.7l.5 3.9h6l.5-3.9c1.06-.4 2.06-.98 2.96-1.7l3.4 2 3-5.2-3.4-2c.09-.55.14-1.12.14-1.7z"/>
</svg>
